<?xml version="1.0" encoding="iso-8859-1"?>
<!-- Generator: Adobe Illustrator 19.0.0, SVG Export Plug-In . SVG Version: 6.00 Build 0)  -->
<svg xmlns="http://www.w3.org/2000/svg" xmlns:xlink="http://www.w3.org/1999/xlink" version="1.1" id="Capa_1" x="0px" y="0px" viewBox="0 0 512 512" style="enable-background:new 0 0 512 512;" xml:space="preserve" width="512px" height="512px">
<g>
	<g>
		<g>
			<rect x="224" y="32" width="64" height="21.333" fill="#ff4c3b"/>
			<rect x="149.333" y="384" width="21.333" height="21.333" fill="#ff4c3b"/>
			<rect x="149.333" y="341.333" width="21.333" height="21.333" fill="#ff4c3b"/>
			<rect x="192" y="384" width="21.333" height="21.333" fill="#ff4c3b"/>
			<path d="M458.667,181.333c-14.735,0-36.96,5.086-53.333,20.42V32c0-17.673-14.327-32-32-32H138.667c-17.673,0-32,14.327-32,32     v128h-32c-17.673,0-32,14.327-32,32v21.333c0,8.197,3.086,15.672,8.155,21.333c-5.069,5.662-8.155,13.136-8.155,21.333v21.333     c0,8.197,3.086,15.672,8.155,21.333c-5.069,5.662-8.155,13.136-8.155,21.333v21.333c0,8.197,3.086,15.672,8.155,21.333     c-5.069,5.662-8.155,13.136-8.155,21.333v21.333c0,17.673,14.327,32,32,32h32V480c0,17.673,14.327,32,32,32h234.667     c17.673,0,32-14.327,32-32V248.629c1.708-22.838,19.285-41.893,42.667-44.843v297.547h21.333V192     C469.333,186.109,464.558,181.333,458.667,181.333z M138.667,21.333h234.667C379.224,21.333,384,26.109,384,32v32H128V32     C128,26.109,132.776,21.333,138.667,21.333z M64,341.333V320c0-5.891,4.776-10.667,10.667-10.667h32V352h-32     C68.776,352,64,347.224,64,341.333z M64,277.333V256c0-5.891,4.776-10.667,10.667-10.667h32V288h-32     C68.776,288,64,283.224,64,277.333z M64,192c0-5.891,4.776-10.667,10.667-10.667h32V224h-32C68.776,224,64,219.224,64,213.333     V192z M74.667,416C68.776,416,64,411.224,64,405.333V384c0-5.891,4.776-10.667,10.667-10.667h32V416H74.667z M373.333,490.667     H138.667c-5.891,0-10.667-4.776-10.667-10.667v-32h256v32C384,485.891,379.224,490.667,373.333,490.667z M384,426.667H128v-64     v-64v-64v-64V85.333h256V426.667z" fill="#ff4c3b"/>
			<path d="M256,149.333c-58.91,0-106.667,47.756-106.667,106.667S197.09,362.667,256,362.667     c58.884-0.065,106.602-47.783,106.667-106.667C362.667,197.09,314.91,149.333,256,149.333z M256,341.333     c-47.128,0-85.333-38.205-85.333-85.333s38.205-85.333,85.333-85.333c47.106,0.053,85.28,38.227,85.333,85.333     C341.333,303.128,303.128,341.333,256,341.333z" fill="#ff4c3b"/>
			<path d="M256,224c5.891,0,10.667,4.776,10.667,10.667H288c0-13.932-8.906-25.778-21.333-30.172V192h-21.333v12.495     C232.906,208.888,224,220.735,224,234.667c0,17.673,14.327,32,32,32c5.891,0,10.667,4.776,10.667,10.667     c0,5.891-4.776,10.667-10.667,10.667s-10.667-4.776-10.667-10.667H224c0,13.932,8.906,25.778,21.333,30.172V320h21.333v-12.495     c12.427-4.394,21.333-16.24,21.333-30.172c0-17.673-14.327-32-32-32c-5.891,0-10.667-4.776-10.667-10.667     C245.333,228.776,250.109,224,256,224z" fill="#ff4c3b"/>
			<rect x="341.333" y="106.667" width="21.333" height="21.333" fill="#ff4c3b"/>
			<rect x="341.333" y="149.333" width="21.333" height="21.333" fill="#ff4c3b"/>
			<rect x="298.667" y="106.667" width="21.333" height="21.333" fill="#ff4c3b"/>
		</g>
	</g>
</g>
</svg>
